<svg xmlns="http://www.w3.org/2000/svg" version="1.1" xmlns:xlink="http://www.w3.org/1999/xlink" xmlns:svgjs="http://svgjs.dev/svgjs" width="1500" height="1610" viewBox="0 0 1500 1610"><g transform="matrix(1,0,0,1,1.0832224951755052,0.6518218623481289)"><svg viewBox="0 0 230 247" data-background-color="#ffffff" preserveAspectRatio="xMidYMid meet" height="1610" width="1500" xmlns="http://www.w3.org/2000/svg" xmlns:xlink="http://www.w3.org/1999/xlink"><g id="tight-bounds" transform="matrix(1,0,0,1,-0.16609411592691004,-0.09999999999999432)"><svg viewBox="0 0 230.33218823185382 247.2" height="247.2" width="230.33218823185382"><g><svg viewBox="0 0 395.52 424.48493521705063" height="247.2" width="230.33218823185382"><g transform="matrix(1,0,0,1,0,276.3245907606459)"><svg viewBox="0 0 395.52 148.16034445640474" height="148.16034445640474" width="395.52"><g id="textblocktransform"><svg viewBox="0 0 395.52 148.16034445640474" height="148.16034445640474" width="395.52" id="textblock"><g><svg viewBox="0 0 395.52 148.16034445640474" height="148.16034445640474" width="395.52"><g transform="matrix(1,0,0,1,0,0)"><svg width="395.52" viewBox="117.13 -37.5 232.25 82.5" height="148.16034445640474" data-palette-color="#b81d33"><svg></svg><svg></svg><g class="wordmark-text-0" data-fill-palette-color="primary" id="text-0"><path transform="translate(150.05,0)" d="M36.05-37.5h25.2c0 2.5 0 5 0 7.5 0 2.5 0 5 0 7.5 0 2.5 0 5 0 7.5 0 2.5 0 5 0 7.5 0 2.5 0 5 0 7.5v0h-19.25c0-3.467 0-6.933 0-10.4 0-3.467 0-6.933 0-10.4v0c0 0 0-0.01 0-0.03 0-0.013-0.007-0.02-0.02-0.02-0.02 0-0.037 0-0.05 0-0.02 0-0.03 0.007-0.03 0.02 0 0.02 0 0.03 0 0.03v0l-4.9 20.8h-12.75c-0.833-3.467-1.65-6.917-2.45-10.35-0.8-3.433-1.617-6.867-2.45-10.3v0c0 0 0-0.01 0-0.03 0-0.013-0.007-0.02-0.02-0.02-0.02 0-0.03 0-0.03 0 0 0-0.007 0-0.02 0-0.02 0-0.03 0.007-0.03 0.02 0 0.02 0 0.03 0 0.03v0c0 3.433 0 6.867 0 10.3 0 3.433 0 6.883 0 10.35v0h-18.25c0-2.5 0-5.01 0-7.53 0-2.513 0-5.03 0-7.55 0-2.513 0-5.03 0-7.55 0-2.513 0-5.02 0-7.52v0c0-1.233 0-2.46 0-3.68 0-1.213 0-2.437 0-3.67v0h26.65c0.5 2.067 0.983 4.123 1.45 6.17 0.467 2.053 0.943 4.113 1.43 6.18 0.48 2.067 0.953 4.133 1.42 6.2v0c0 0.033 0.01 0.057 0.03 0.07 0.013 0.02 0.027 0.02 0.04 0 0.02-0.013 0.03-0.037 0.03-0.07v0zM72.85-37.5h31.05c0.6 2.067 1.193 4.14 1.78 6.22 0.58 2.087 1.163 4.17 1.75 6.25 0.58 2.087 1.17 4.17 1.77 6.25 0.6 2.087 1.19 4.17 1.77 6.25 0.587 2.087 1.17 4.17 1.75 6.25 0.587 2.087 1.18 4.18 1.78 6.28v0h-22.3l-0.85-4.9c-0.133 0-0.25 0-0.35 0-0.1 0-0.217 0-0.35 0v0h-5.5c-0.1 0-0.2 0-0.3 0-0.1 0-0.2 0-0.3 0v0l-0.85 4.9h-21.35c0.6-2.1 1.193-4.193 1.78-6.28 0.58-2.08 1.163-4.163 1.75-6.25 0.58-2.08 1.163-4.163 1.75-6.25 0.58-2.08 1.163-4.163 1.75-6.25 0.58-2.08 1.163-4.163 1.75-6.25 0.58-2.08 1.153-4.153 1.72-6.22zM85.15-8.45v0c0 0.033 0 0.05 0 0.05 0 0 0.017 0 0.05 0v0h5.5c0.033 0 0.05-0.01 0.05-0.03 0-0.013 0-0.02 0-0.02v0 0c0 0-0.067-0.41-0.2-1.23-0.133-0.813-0.307-1.847-0.52-3.1-0.22-1.247-0.447-2.58-0.68-4-0.233-1.413-0.45-2.753-0.65-4.02-0.2-1.267-0.377-2.3-0.53-3.1-0.147-0.8-0.22-1.2-0.22-1.2v0c0 0-0.01 0-0.03 0-0.013 0-0.02 0-0.02 0v0c0 0-0.067 0.4-0.2 1.2-0.133 0.8-0.31 1.833-0.53 3.1-0.213 1.267-0.437 2.607-0.67 4.02-0.233 1.42-0.45 2.753-0.65 4-0.2 1.253-0.367 2.287-0.5 3.1-0.133 0.82-0.2 1.23-0.2 1.23zM140.8-18.75v0c0 0 0 0.017 0 0.05 0 0.033-0.007 0.057-0.02 0.07-0.02 0.02-0.03 0.047-0.03 0.08v0l-4.2 18.55h-21.75c0.867-2.133 1.69-4.26 2.47-6.38 0.787-2.113 1.573-4.237 2.36-6.37 0.78-2.133 1.603-4.25 2.47-6.35v0c0 0 0-0.01 0-0.03 0-0.013 0-0.02 0-0.02 0 0 0-0.01 0-0.03 0-0.013 0-0.02 0-0.02v0c-1.3-3.067-2.517-6.127-3.65-9.18-1.133-3.047-2.35-6.087-3.65-9.12v0h22.5l3.45 18.5c0 0.033 0.01 0.067 0.03 0.1 0.013 0.033 0.02 0.083 0.02 0.15zM139.2-16.1v0c0-0.033 0.007-0.06 0.02-0.08 0.02-0.013 0.03-0.037 0.03-0.07 0-0.033 0-0.05 0-0.05v0c0.5-2.367 0.983-4.727 1.45-7.08 0.467-2.347 0.943-4.703 1.43-7.07 0.48-2.367 0.953-4.717 1.42-7.05v0h21.7c-1.233 3.167-2.4 6.35-3.5 9.55-1.1 3.2-2.283 6.383-3.55 9.55v0c0 0 0 0.007 0 0.02 0 0.02 0 0.03 0 0.03 0 0 0 0.017 0 0.05v0c0.5 1.233 0.993 2.457 1.48 3.67 0.48 1.22 0.953 2.437 1.42 3.65 0.467 1.22 0.933 2.437 1.4 3.65 0.467 1.22 0.943 2.437 1.43 3.65 0.48 1.22 0.97 2.447 1.47 3.68v0h-22.6l-3.55-15.9c0-0.033 0-0.06 0-0.08 0-0.013-0.01-0.037-0.03-0.07-0.013-0.033-0.02-0.05-0.02-0.05z" fill="#b81d33" fill-rule="nonzero" stroke="none" stroke-width="1" stroke-linecap="butt" stroke-linejoin="miter" stroke-miterlimit="10" stroke-dasharray="" stroke-dashoffset="0" font-family="none" font-weight="none" font-size="none" text-anchor="none" style="mix-blend-mode: normal" data-fill-palette-color="primary" opacity="1"></path><path transform="translate(116.13,43.5)" d="M36.05-37.5h25.2c0 2.5 0 5 0 7.5 0 2.5 0 5 0 7.5 0 2.5 0 5 0 7.5 0 2.5 0 5 0 7.5 0 2.5 0 5 0 7.5v0h-19.25c0-3.467 0-6.933 0-10.4 0-3.467 0-6.933 0-10.4v0c0 0 0-0.01 0-0.03 0-0.013-0.007-0.02-0.02-0.02-0.02 0-0.037 0-0.05 0-0.02 0-0.03 0.007-0.03 0.02 0 0.02 0 0.03 0 0.03v0l-4.9 20.8h-12.75c-0.833-3.467-1.65-6.917-2.45-10.35-0.8-3.433-1.617-6.867-2.45-10.3v0c0 0 0-0.01 0-0.03 0-0.013-0.007-0.02-0.02-0.02-0.02 0-0.03 0-0.03 0 0 0-0.007 0-0.02 0-0.02 0-0.03 0.007-0.03 0.02 0 0.02 0 0.03 0 0.03v0c0 3.433 0 6.867 0 10.3 0 3.433 0 6.883 0 10.35v0h-18.25c0-2.5 0-5.01 0-7.53 0-2.513 0-5.03 0-7.55 0-2.513 0-5.03 0-7.55 0-2.513 0-5.02 0-7.52v0c0-1.233 0-2.46 0-3.68 0-1.213 0-2.437 0-3.67v0h26.65c0.5 2.067 0.983 4.123 1.45 6.17 0.467 2.053 0.943 4.113 1.43 6.18 0.48 2.067 0.953 4.133 1.42 6.2v0c0 0.033 0.01 0.057 0.03 0.07 0.013 0.02 0.027 0.02 0.04 0 0.02-0.013 0.03-0.037 0.03-0.07v0zM90.25-39v0c-3.067 0-5.873 0.223-8.42 0.67-2.553 0.453-4.847 1.103-6.88 1.95-2.033 0.853-3.807 1.87-5.32 3.05-1.52 1.187-2.787 2.53-3.8 4.03-1.02 1.5-1.79 3.133-2.31 4.9-0.513 1.767-0.77 3.633-0.77 5.6v0c0 1.5 0.16 2.983 0.48 4.45 0.313 1.467 0.81 2.867 1.49 4.2 0.687 1.333 1.557 2.59 2.61 3.77 1.047 1.187 2.297 2.263 3.75 3.23 1.447 0.967 3.12 1.79 5.02 2.47 1.9 0.687 4.023 1.223 6.37 1.61 2.353 0.38 4.947 0.57 7.78 0.57v0c3.967 0 7.457-0.357 10.47-1.07 3.02-0.72 5.613-1.723 7.78-3.01 2.167-1.28 3.933-2.78 5.3-4.5 1.367-1.713 2.367-3.563 3-5.55 0.633-1.98 0.95-4.037 0.95-6.17v0c0-3.933-1.017-7.417-3.05-10.45-2.033-3.033-5.083-5.417-9.15-7.15-4.067-1.733-9.167-2.6-15.3-2.6zM90.3-23.1v0c1.167 0 2.15 0.133 2.95 0.4 0.8 0.267 1.433 0.607 1.9 1.02 0.467 0.42 0.81 0.88 1.03 1.38 0.213 0.5 0.32 1 0.32 1.5v0c0 0.433-0.067 0.857-0.2 1.27-0.133 0.42-0.357 0.823-0.67 1.21-0.32 0.38-0.72 0.71-1.2 0.99-0.487 0.287-1.073 0.513-1.76 0.68-0.68 0.167-1.47 0.25-2.37 0.25v0c-1.533 0-2.767-0.217-3.7-0.65-0.933-0.433-1.6-0.983-2-1.65-0.4-0.667-0.6-1.35-0.6-2.05v0c0-0.533 0.11-1.06 0.33-1.58 0.213-0.513 0.563-0.98 1.05-1.4 0.48-0.413 1.13-0.747 1.95-1 0.813-0.247 1.803-0.37 2.97-0.37zM145.55-37.5h21.6c-0.733 2.5-1.473 5-2.22 7.5-0.753 2.5-1.503 5-2.25 7.5-0.753 2.5-1.503 5-2.25 7.5-0.753 2.5-1.503 5-2.25 7.5-0.753 2.5-1.513 5-2.28 7.5v0h-28.95c-1.233-4.167-2.477-8.333-3.73-12.5-1.247-4.167-2.487-8.333-3.72-12.5-1.233-4.167-2.483-8.333-3.75-12.5v0h22.3c0.2 1.3 0.41 2.59 0.63 3.87 0.213 1.287 0.42 2.58 0.62 3.88 0.2 1.3 0.4 2.6 0.6 3.9 0.2 1.3 0.4 2.6 0.6 3.9 0.2 1.3 0.41 2.593 0.63 3.88 0.213 1.28 0.42 2.57 0.62 3.87v0c0.033 0 0.05 0 0.05 0 0 0 0.007 0 0.02 0 0.02 0 0.03 0 0.03 0v0c0.167-1.1 0.343-2.21 0.53-3.33 0.18-1.113 0.353-2.22 0.52-3.32 0.167-1.1 0.343-2.21 0.53-3.33 0.18-1.113 0.36-2.23 0.54-3.35 0.187-1.113 0.363-2.22 0.53-3.32 0.167-1.1 0.343-2.21 0.53-3.33 0.18-1.113 0.353-2.22 0.52-3.32zM188.9 0h-20.75c0-2.4 0-4.8 0-7.2 0-2.4 0-4.8 0-7.2 0-2.4 0-4.8 0-7.2 0-2.4 0-4.8 0-7.2v0c0-1.467 0-2.927 0-4.38 0-1.447 0-2.887 0-4.32v0h20.75c0 3.233 0 6.457 0 9.67 0 3.22 0 6.447 0 9.68v0c0 2 0 4.007 0 6.02 0 2.02 0 4.037 0 6.05 0 2.02 0 4.047 0 6.08zM232.95-37.5v12.6h-21.75c-0.033 0-0.05 0-0.05 0v0 0 2.75c0 0.033 0 0.057 0 0.07 0 0.02 0 0.03 0 0.03 0 0 0.01 0 0.03 0 0.013 0 0.02 0 0.02 0v0h21v7.05h-21c0 0-0.007 0-0.02 0-0.02 0-0.03 0.007-0.03 0.02 0 0.02 0 0.047 0 0.08v0 2.8 0 0c0 0 0.01 0 0.03 0 0.013 0 0.02 0 0.02 0v0h22.05v12.1h-42.35c0-1.967 0-3.943 0-5.93 0-1.98 0-3.953 0-5.92 0-1.967 0-3.943 0-5.93 0-1.98 0-3.963 0-5.95 0-1.98 0-3.953 0-5.92v0c0-1.3 0-2.61 0-3.93 0-1.313 0-2.62 0-3.92v0z" fill="#b81d33" fill-rule="nonzero" stroke="none" stroke-width="1" stroke-linecap="butt" stroke-linejoin="miter" stroke-miterlimit="10" stroke-dasharray="" stroke-dashoffset="0" font-family="none" font-weight="none" font-size="none" text-anchor="none" style="mix-blend-mode: normal" data-fill-palette-color="primary" opacity="1"></path></g></svg></g></svg></g></svg></g></svg></g><g transform="matrix(1,0,0,1,67.73892651539288,0)"><svg viewBox="0 0 260.04214696921423 260.04214696921423" height="260.04214696921423" width="260.04214696921423"><g><svg></svg></g><g id="icon-0"><svg viewBox="0 0 260.04214696921423 260.04214696921423" height="260.04214696921423" width="260.04214696921423"><g><path transform="scale(2.60042,2.60042)" d="M30 100c-16.569 0-30-13.431-30-30v-40c0-16.569 13.431-30 30-30h40c16.569 0 30 13.431 30 30v40c0 16.569-13.431 30-30 30z" fill="#fe6e63" fill-rule="nonzero" stroke="none" stroke-width="1" stroke-linecap="butt" stroke-linejoin="miter" stroke-miterlimit="10" stroke-dasharray="" stroke-dashoffset="0" font-family="none" font-weight="none" font-size="none" text-anchor="none" style="mix-blend-mode: normal" data-fill-palette-color="accent"></path></g><g transform="matrix(1,0,0,1,52.008429393842846,52.008429393842846)"><svg viewBox="0 0 156.02528818152854 156.02528818152854" height="156.02528818152854" width="156.02528818152854"><g><svg xmlns="http://www.w3.org/2000/svg" xmlns:xlink="http://www.w3.org/1999/xlink" version="1.1" x="0" y="0" viewBox="0 0 26 26" style="enable-background:new 0 0 26 26;" xml:space="preserve" height="156.02528818152854" width="156.02528818152854" class="icon-cg-0" data-fill-palette-color="quaternary" id="cg-0"><g fill="#ffffff" data-fill-palette-color="quaternary"><path d="M13 0C5.82 0 0 5.82 0 13s5.82 13 13 13c7.18 0 13-5.82 13-13S20.18 0 13 0zM11.248 20.07c-1.171 1.172-3.155 1.087-5.303-1.06C3.798 16.862 4.178 13 4.178 13s3.862-0.38 6.01 1.768C12.335 16.915 12.42 18.899 11.248 20.07zM10 9.5C10 6.463 13 4 13 4s3 2.463 3 5.5S14.656 14 13 14C11.344 14 10 12.537 10 9.5zM20.055 19.01c-2.148 2.147-4.132 2.232-5.303 1.06-1.172-1.171-1.087-3.155 1.06-5.303C17.96 12.62 21.822 13 21.822 13S22.202 16.862 20.055 19.01z" fill="#ffffff" data-fill-palette-color="quaternary"></path></g></svg></g></svg></g></svg></g></svg></g><g></g></svg></g><defs></defs></svg><rect width="230.33218823185382" height="247.2" fill="none" stroke="none" visibility="hidden"></rect></g></svg></g></svg>